<svg xmlns="http://www.w3.org/2000/svg" width="1200" height="750" viewBox="0 0 1200 750">
  <defs>
    <style>
      .bg { fill: #1e1e1e; }
      .title-bar { fill: #3c3c3c; }
      .activity-bar { fill: #333333; }
      .sidebar { fill: #252526; }
      .status-bar { fill: #007acc; }
      .editor { fill: #1e1e1e; }
      .text { fill: #cccccc; font-family: -apple-system, "SF Pro Text", sans-serif; font-size: 12px; }
      .text-sub { fill: #858585; font-family: -apple-system, sans-serif; font-size: 11px; }
      .text-mono { font-family: "SF Mono", Menlo, monospace; font-size: 11px; fill: #d18616; }
      .text-mono-blue { font-family: "SF Mono", Menlo, monospace; font-size: 11px; fill: #6cb6ff; }
      .heading-sm { fill: #858585; font-family: -apple-system; font-size: 10px; font-weight: 600; text-transform: uppercase; letter-spacing: 0.5px; }
      .button-bg { fill: #3a3d41; }
      .button-text { fill: #cccccc; font-family: -apple-system; font-size: 11px; }
      .added { fill: #3fb950; }
      .deleted { fill: #f85149; }
      .modified { fill: #d29922; }
      .badge { font-family: "SF Mono", Menlo, monospace; font-size: 9px; font-weight: 700; }
    </style>
  </defs>

  <!-- Window chrome -->
  <rect width="1200" height="750" class="bg"/>
  <rect width="1200" height="30" class="title-bar"/>
  <circle cx="18" cy="15" r="6" fill="#ff5f57"/>
  <circle cx="38" cy="15" r="6" fill="#febc2e"/>
  <circle cx="58" cy="15" r="6" fill="#28c840"/>
  <text x="600" y="20" text-anchor="middle" class="text-sub">demo-project</text>

  <!-- Activity bar (Rebased active) -->
  <rect x="0" y="30" width="48" height="720" class="activity-bar"/>
  <rect x="0" y="170" width="48" height="40" fill="#37373d"/>
  <rect x="0" y="170" width="2" height="40" fill="#007acc"/>
  <g transform="translate(12,178)" stroke="#cccccc" stroke-width="1.6" fill="none">
    <circle cx="5" cy="4" r="2.4" fill="#cccccc"/>
    <circle cx="5" cy="20" r="2.4" fill="#cccccc"/>
    <circle cx="19" cy="12" r="2.4" fill="#cccccc"/>
    <line x1="5" y1="6.4" x2="5" y2="17.6"/>
    <path d="M 5 12 C 5 17 11 20 16.5 18"/>
    <path d="M 5 12 C 5 7 11 4 16.5 6"/>
  </g>

  <!-- Sidebar with log view (compact) -->
  <rect x="48" y="30" width="280" height="720" class="sidebar"/>
  <text x="64" y="55" class="heading-sm">REBASED · LOG</text>

  <g font-family="SF Mono, Menlo, monospace" font-size="10" fill="#cccccc">
    <text x="64" y="85">● 5193e9d feat(api): pagination</text>
    <rect x="64" y="92" width="200" height="16" fill="#094771"/>
    <text x="64" y="105">● 8a2c1f0 feat(api): list endpoint  ◀</text>
    <text x="64" y="125">│ ● cb71e30 perf(parser): batch</text>
    <text x="64" y="145">│ ● f234bb8 perf(parser): inline</text>
    <text x="64" y="165">● 0d44a91 fix(auth): rotate tokens</text>
    <text x="64" y="185">● d8f0c2e refactor(core): extract</text>
    <text x="64" y="205">● 3e88a14 docs: add architecture</text>
    <text x="64" y="225">● 9c1de37 chore: bump deps</text>
    <text x="64" y="245">● 7771bbb feat(core): bootstrap</text>
  </g>

  <!-- Editor pane = commit details -->
  <rect x="328" y="30" width="872" height="35" fill="#252526"/>
  <rect x="328" y="30" width="320" height="35" fill="#1e1e1e"/>
  <text x="348" y="52" class="text">📄 8a2c1f0 · feat(api): list endpoint</text>

  <rect x="328" y="65" width="872" height="660" class="editor"/>

  <!-- Header -->
  <text x="360" y="105" class="text" style="font-size: 18px; font-weight: 600;">feat(api): list endpoint</text>

  <!-- ref chips -->
  <rect x="360" y="120" width="90" height="20" rx="3" fill="#0969da"/>
  <text x="405" y="135" class="text" style="font-weight: 600;" text-anchor="middle">feature/api</text>
  <rect x="460" y="120" width="120" height="20" rx="3" fill="#1f6feb"/>
  <text x="520" y="135" class="text" style="font-weight: 600;" text-anchor="middle">origin/feature/api</text>

  <!-- meta -->
  <text x="360" y="160" class="text-mono">8a2c1f0a2b3c4d5e6f7a8b9c0d1e2f3a4b5c6d7e</text>
  <text x="360" y="180" class="text-sub">Demo Author &lt;demo@example.com&gt;  ·  2025-10-27 14:23:45  ·  parents: 0d44a91</text>

  <!-- Action buttons -->
  <g transform="translate(360, 195)">
    <rect x="0" y="0" width="100" height="26" rx="3" class="button-bg"/>
    <text x="50" y="17" class="button-text" text-anchor="middle">Cherry-pick</text>
    <rect x="108" y="0" width="170" height="26" rx="3" class="button-bg"/>
    <text x="193" y="17" class="button-text" text-anchor="middle">Interactive rebase here</text>
    <rect x="286" y="0" width="160" height="26" rx="3" class="button-bg"/>
    <text x="366" y="17" class="button-text" text-anchor="middle">Checkout (detached)</text>
  </g>

  <!-- Body / message -->
  <rect x="360" y="240" width="800" height="80" rx="4" fill="#2d2d30"/>
  <text x="376" y="262" class="text" style="font-family: 'SF Mono', monospace; font-size: 11px;">Adds GET /api/items returning paginated results.</text>
  <text x="376" y="282" class="text" style="font-family: 'SF Mono', monospace; font-size: 11px;">Uses rotate(token) from the auth helper for the response envelope.</text>
  <text x="376" y="302" class="text" style="font-family: 'SF Mono', monospace; font-size: 11px;">Reviewed-by: rev@example.com</text>

  <!-- Files section -->
  <g transform="translate(360, 350)">
    <text class="heading-sm">FILES (3)</text>
    <text x="80" y="0" class="text" style="font-family: 'SF Mono', monospace; font-size: 11px;"><tspan class="added">+47</tspan>  <tspan class="deleted">−3</tspan></text>

    <!-- File 1 -->
    <rect x="0" y="14" width="800" height="32" rx="3" fill="#252526"/>
    <rect x="6" y="22" width="18" height="16" rx="2" fill="#0d4429"/>
    <text x="15" y="34" class="badge added" text-anchor="middle">A</text>
    <text x="38" y="34" class="text" style="font-family: 'SF Mono', monospace;">apps/api/list.ts</text>
    <text x="750" y="34" class="text" style="font-family: 'SF Mono', monospace; font-size: 11px;"><tspan class="added">+34</tspan> <tspan class="deleted">−0</tspan></text>

    <!-- File 2 -->
    <rect x="0" y="50" width="800" height="32" rx="3" fill="#252526"/>
    <rect x="6" y="58" width="18" height="16" rx="2" fill="#3d2c08"/>
    <text x="15" y="70" class="badge modified" text-anchor="middle">M</text>
    <text x="38" y="70" class="text" style="font-family: 'SF Mono', monospace;">apps/auth.ts</text>
    <text x="750" y="70" class="text" style="font-family: 'SF Mono', monospace; font-size: 11px;"><tspan class="added">+9</tspan> <tspan class="deleted">−2</tspan></text>

    <!-- File 3 -->
    <rect x="0" y="86" width="800" height="32" rx="3" fill="#252526"/>
    <rect x="6" y="94" width="18" height="16" rx="2" fill="#3d2c08"/>
    <text x="15" y="106" class="badge modified" text-anchor="middle">M</text>
    <text x="38" y="106" class="text" style="font-family: 'SF Mono', monospace;">apps/api/index.ts</text>
    <text x="750" y="106" class="text" style="font-family: 'SF Mono', monospace; font-size: 11px;"><tspan class="added">+4</tspan> <tspan class="deleted">−1</tspan></text>
  </g>

  <!-- Status bar -->
  <rect x="0" y="725" width="1200" height="25" class="status-bar"/>
  <text x="14" y="743" fill="white" font-family="-apple-system" font-size="12">⎇ main · 8a2c1f0 selected</text>
</svg>
